<mxfile host="app.diagrams.net" agent="Mozilla/5.0 (Windows NT 10.0; Win64; x64; rv:136.0) Gecko/20100101 Firefox/136.0" version="26.1.3">
  <diagram name="Page-1" id="Qlii24mlCDuPc5cvB6Kh">
    <mxGraphModel grid="1" page="1" gridSize="10" guides="1" tooltips="1" connect="1" arrows="1" fold="1" pageScale="1" pageWidth="10000" pageHeight="10000" background="none" math="0" shadow="0">
      <root>
        <mxCell id="0" />
        <mxCell id="1" parent="0" />
        <mxCell id="KpcEkN50f_9RtJmdfwBh-9" value="" style="rounded=0;whiteSpace=wrap;html=1;fillColor=light-dark(#1BA1E2,#004C99);fontColor=#ffffff;strokeColor=#006EAF;align=center;" vertex="1" parent="1">
          <mxGeometry x="715" y="310" width="450" height="410" as="geometry" />
        </mxCell>
        <mxCell id="KpcEkN50f_9RtJmdfwBh-1" value="" style="pointerEvents=1;fillColor=strokeColor;verticalLabelPosition=bottom;shadow=0;dashed=0;align=center;html=1;verticalAlign=top;shape=mxgraph.electrical.diodes.schottky_diode;" vertex="1" parent="1">
          <mxGeometry x="740" y="380" width="100" height="60" as="geometry" />
        </mxCell>
        <mxCell id="KpcEkN50f_9RtJmdfwBh-6" value="Schottky Protection Diode" style="text;html=1;align=center;verticalAlign=middle;whiteSpace=wrap;rounded=0;rotation=0;fontFamily=Verdana;fontSize=16;fontColor=light-dark(#000000,#49FF35);" vertex="1" parent="1">
          <mxGeometry x="760" y="470" width="60" height="30" as="geometry" />
        </mxCell>
        <mxCell id="KpcEkN50f_9RtJmdfwBh-11" value="Voltage Source 1" style="pointerEvents=1;verticalLabelPosition=bottom;shadow=0;dashed=0;align=center;html=1;verticalAlign=top;shape=mxgraph.electrical.signal_sources.vss2;fontSize=20;flipV=1;direction=north;" vertex="1" parent="1">
          <mxGeometry x="600" y="380" width="40" height="60" as="geometry" />
        </mxCell>
        <mxCell id="KpcEkN50f_9RtJmdfwBh-15" value="" style="endArrow=none;html=1;rounded=0;entryX=0.5;entryY=1;entryDx=0;entryDy=0;entryPerimeter=0;exitX=0;exitY=0.5;exitDx=0;exitDy=0;exitPerimeter=0;" edge="1" parent="1" source="KpcEkN50f_9RtJmdfwBh-1" target="KpcEkN50f_9RtJmdfwBh-11">
          <mxGeometry width="50" height="50" relative="1" as="geometry">
            <mxPoint x="710" y="410" as="sourcePoint" />
            <mxPoint x="840" y="360" as="targetPoint" />
          </mxGeometry>
        </mxCell>
        <mxCell id="KpcEkN50f_9RtJmdfwBh-16" value="" style="endArrow=none;html=1;rounded=0;exitX=1;exitY=0.5;exitDx=0;exitDy=0;exitPerimeter=0;" edge="1" parent="1" source="KpcEkN50f_9RtJmdfwBh-1">
          <mxGeometry width="50" height="50" relative="1" as="geometry">
            <mxPoint x="960" y="430" as="sourcePoint" />
            <mxPoint x="940" y="410" as="targetPoint" />
          </mxGeometry>
        </mxCell>
        <mxCell id="KpcEkN50f_9RtJmdfwBh-20" value="" style="pointerEvents=1;fillColor=strokeColor;verticalLabelPosition=bottom;shadow=0;dashed=0;align=center;html=1;verticalAlign=top;shape=mxgraph.electrical.diodes.schottky_diode;direction=west;" vertex="1" parent="1">
          <mxGeometry x="1040" y="380" width="100" height="60" as="geometry" />
        </mxCell>
        <mxCell id="KpcEkN50f_9RtJmdfwBh-21" value="" style="pointerEvents=1;verticalLabelPosition=bottom;shadow=0;dashed=0;align=center;html=1;verticalAlign=top;shape=mxgraph.electrical.signal_sources.signal_ground;direction=east;" vertex="1" parent="1">
          <mxGeometry x="903.75" y="740" width="72.5" height="80" as="geometry" />
        </mxCell>
        <mxCell id="KpcEkN50f_9RtJmdfwBh-22" value="" style="endArrow=none;html=1;rounded=0;entryX=0.5;entryY=0;entryDx=0;entryDy=0;entryPerimeter=0;" edge="1" parent="1" target="KpcEkN50f_9RtJmdfwBh-21">
          <mxGeometry width="50" height="50" relative="1" as="geometry">
            <mxPoint x="940" y="700" as="sourcePoint" />
            <mxPoint x="1080" y="570" as="targetPoint" />
          </mxGeometry>
        </mxCell>
        <mxCell id="KpcEkN50f_9RtJmdfwBh-23" value="GND" style="text;html=1;align=center;verticalAlign=middle;whiteSpace=wrap;rounded=0;fontFamily=Verdana;fontSize=16;" vertex="1" parent="1">
          <mxGeometry x="878" y="690" width="60" height="30" as="geometry" />
        </mxCell>
        <mxCell id="KpcEkN50f_9RtJmdfwBh-24" value="" style="endArrow=none;html=1;rounded=0;entryX=1;entryY=0.5;entryDx=0;entryDy=0;entryPerimeter=0;" edge="1" parent="1" target="KpcEkN50f_9RtJmdfwBh-20">
          <mxGeometry width="50" height="50" relative="1" as="geometry">
            <mxPoint x="940" y="410" as="sourcePoint" />
            <mxPoint x="1010" y="500" as="targetPoint" />
          </mxGeometry>
        </mxCell>
        <mxCell id="KpcEkN50f_9RtJmdfwBh-29" value="Schottky Protection Diode" style="text;html=1;align=center;verticalAlign=middle;whiteSpace=wrap;rounded=0;rotation=0;fontFamily=Verdana;fontSize=16;fontColor=light-dark(#000000,#49FF35);" vertex="1" parent="1">
          <mxGeometry x="1060" y="470" width="60" height="30" as="geometry" />
        </mxCell>
        <mxCell id="KpcEkN50f_9RtJmdfwBh-30" value="Voltage Source 2" style="pointerEvents=1;verticalLabelPosition=bottom;shadow=0;dashed=0;align=center;html=1;verticalAlign=top;shape=mxgraph.electrical.signal_sources.vss2;fontSize=20;flipV=1;direction=south;" vertex="1" parent="1">
          <mxGeometry x="1280" y="380" width="40" height="60" as="geometry" />
        </mxCell>
        <mxCell id="KpcEkN50f_9RtJmdfwBh-40" value="" style="endArrow=none;html=1;rounded=0;entryX=0;entryY=0.5;entryDx=0;entryDy=0;entryPerimeter=0;exitX=0.5;exitY=1;exitDx=0;exitDy=0;exitPerimeter=0;" edge="1" parent="1" source="KpcEkN50f_9RtJmdfwBh-30" target="KpcEkN50f_9RtJmdfwBh-20">
          <mxGeometry width="50" height="50" relative="1" as="geometry">
            <mxPoint x="970" y="540" as="sourcePoint" />
            <mxPoint x="1020" y="490" as="targetPoint" />
          </mxGeometry>
        </mxCell>
        <mxCell id="5goqEzdLOGWbC_1ylqqu-9" value="Adding Protection Circuitry For Future Designs" style="text;strokeColor=none;fillColor=none;html=1;fontSize=30;fontStyle=1;verticalAlign=middle;align=center;" vertex="1" parent="1">
          <mxGeometry x="890" y="90" width="100" height="40" as="geometry" />
        </mxCell>
        <mxCell id="5goqEzdLOGWbC_1ylqqu-10" value="&lt;div&gt;Usually, only one voltage supply is connected to the board. If another voltage source were to be connected simultaneously (such as a USB cable) or an accidental reverse connection is made,&lt;span style=&quot;color: light-dark(rgb(0, 0, 0), rgb(73, 255, 53));&quot;&gt; Schottky Diodes&lt;/span&gt; should be added to provide reverse voltage spikes from damaging circuitry upstream.&lt;/div&gt;" style="text;html=1;align=center;verticalAlign=middle;whiteSpace=wrap;rounded=0;fontSize=17;" vertex="1" parent="1">
          <mxGeometry x="671.13" y="180" width="497.74" height="50" as="geometry" />
        </mxCell>
        <mxCell id="5goqEzdLOGWbC_1ylqqu-11" value="" style="endArrow=none;html=1;rounded=0;entryX=0.5;entryY=0;entryDx=0;entryDy=0;" edge="1" parent="1">
          <mxGeometry width="50" height="50" relative="1" as="geometry">
            <mxPoint x="940" y="410" as="sourcePoint" />
            <mxPoint x="940" y="460" as="targetPoint" />
          </mxGeometry>
        </mxCell>
        <mxCell id="5goqEzdLOGWbC_1ylqqu-17" value="" style="pointerEvents=1;shadow=0;dashed=0;html=1;strokeColor=none;fillColor=#4495D1;labelPosition=center;verticalLabelPosition=bottom;verticalAlign=top;align=center;outlineConnect=0;shape=mxgraph.veeam.usb;direction=west;" vertex="1" parent="1">
          <mxGeometry x="1400" y="390" width="110" height="40" as="geometry" />
        </mxCell>
        <mxCell id="5goqEzdLOGWbC_1ylqqu-18" value="" style="pointerEvents=1;verticalLabelPosition=bottom;shadow=0;dashed=0;align=center;html=1;verticalAlign=top;shape=mxgraph.electrical.resistors.resistor_2;direction=south;" vertex="1" parent="1">
          <mxGeometry x="930" y="510" width="20" height="100" as="geometry" />
        </mxCell>
        <mxCell id="5goqEzdLOGWbC_1ylqqu-21" value="" style="endArrow=none;html=1;rounded=0;entryX=1;entryY=0.5;entryDx=0;entryDy=0;entryPerimeter=0;" edge="1" parent="1" target="5goqEzdLOGWbC_1ylqqu-18">
          <mxGeometry width="50" height="50" relative="1" as="geometry">
            <mxPoint x="940" y="700" as="sourcePoint" />
            <mxPoint x="1100" y="590" as="targetPoint" />
          </mxGeometry>
        </mxCell>
        <mxCell id="5goqEzdLOGWbC_1ylqqu-29" value="&lt;font style=&quot;font-size: 25px;&quot; face=&quot;Verdana&quot;&gt;Custom PCB&lt;/font&gt;" style="text;html=1;align=center;verticalAlign=middle;whiteSpace=wrap;rounded=0;fontColor=light-dark(#000000,#99FF99);" vertex="1" parent="1">
          <mxGeometry x="1020" y="610" width="95" height="30" as="geometry" />
        </mxCell>
        <mxCell id="5goqEzdLOGWbC_1ylqqu-31" value="" style="endArrow=none;html=1;rounded=0;exitX=0;exitY=0.5;exitDx=0;exitDy=0;exitPerimeter=0;" edge="1" parent="1" source="5goqEzdLOGWbC_1ylqqu-18">
          <mxGeometry width="50" height="50" relative="1" as="geometry">
            <mxPoint x="980" y="550" as="sourcePoint" />
            <mxPoint x="940" y="460" as="targetPoint" />
          </mxGeometry>
        </mxCell>
        <mxCell id="5goqEzdLOGWbC_1ylqqu-33" value="&lt;font style=&quot;font-size: 20px;&quot; face=&quot;Verdana&quot;&gt;Load&lt;/font&gt;" style="text;html=1;align=center;verticalAlign=middle;whiteSpace=wrap;rounded=0;" vertex="1" parent="1">
          <mxGeometry x="870" y="545" width="60" height="30" as="geometry" />
        </mxCell>
        <mxCell id="5goqEzdLOGWbC_1ylqqu-34" value="&lt;font style=&quot;font-size: 18px;&quot;&gt;+V&lt;/font&gt;" style="text;html=1;align=center;verticalAlign=middle;whiteSpace=wrap;rounded=0;fontFamily=Verdana;" vertex="1" parent="1">
          <mxGeometry x="1120" y="381" width="60" height="30" as="geometry" />
        </mxCell>
        <mxCell id="5goqEzdLOGWbC_1ylqqu-35" value="&lt;font style=&quot;font-size: 18px;&quot;&gt;+V&lt;/font&gt;" style="text;html=1;align=center;verticalAlign=middle;whiteSpace=wrap;rounded=0;fontFamily=Verdana;" vertex="1" parent="1">
          <mxGeometry x="700" y="380" width="60" height="30" as="geometry" />
        </mxCell>
        <mxCell id="5goqEzdLOGWbC_1ylqqu-53" value="" style="endArrow=none;html=1;rounded=0;fillColor=#60a917;strokeColor=light-dark(#2D7600,#FF0000);" edge="1" parent="1">
          <mxGeometry width="50" height="50" relative="1" as="geometry">
            <mxPoint x="920" y="480" as="sourcePoint" />
            <mxPoint x="920" y="430" as="targetPoint" />
          </mxGeometry>
        </mxCell>
        <mxCell id="5goqEzdLOGWbC_1ylqqu-54" value="" style="endArrow=none;html=1;rounded=0;exitX=0.504;exitY=0.552;exitDx=0;exitDy=0;exitPerimeter=0;entryX=0.536;entryY=0.492;entryDx=0;entryDy=0;entryPerimeter=0;strokeColor=light-dark(#000000,#FF0000);" edge="1" parent="1" source="5goqEzdLOGWbC_1ylqqu-58" target="5goqEzdLOGWbC_1ylqqu-56">
          <mxGeometry width="50" height="50" relative="1" as="geometry">
            <mxPoint x="920" y="430" as="sourcePoint" />
            <mxPoint x="850" y="430" as="targetPoint" />
          </mxGeometry>
        </mxCell>
        <mxCell id="5goqEzdLOGWbC_1ylqqu-55" value="" style="endArrow=none;html=1;rounded=0;strokeColor=light-dark(#2D7600,#FF0000);" edge="1" parent="1" source="5goqEzdLOGWbC_1ylqqu-56">
          <mxGeometry width="50" height="50" relative="1" as="geometry">
            <mxPoint x="920" y="430" as="sourcePoint" />
            <mxPoint x="850" y="430" as="targetPoint" />
          </mxGeometry>
        </mxCell>
        <mxCell id="5goqEzdLOGWbC_1ylqqu-56" value="" style="shape=mxgraph.sysml.x;direction=west;rotation=-180;strokeColor=light-dark(#000000,#FF8000);" vertex="1" parent="1">
          <mxGeometry x="830" y="425" width="10" height="10" as="geometry" />
        </mxCell>
        <mxCell id="5goqEzdLOGWbC_1ylqqu-59" value="" style="endArrow=none;html=1;rounded=0;exitX=0.504;exitY=0.552;exitDx=0;exitDy=0;exitPerimeter=0;entryX=0.536;entryY=0.492;entryDx=0;entryDy=0;entryPerimeter=0;strokeColor=light-dark(#000000,#FF0000);" edge="1" parent="1" target="5goqEzdLOGWbC_1ylqqu-58">
          <mxGeometry width="50" height="50" relative="1" as="geometry">
            <mxPoint x="920" y="430" as="sourcePoint" />
            <mxPoint x="855" y="430" as="targetPoint" />
          </mxGeometry>
        </mxCell>
        <mxCell id="5goqEzdLOGWbC_1ylqqu-58" value="" style="html=1;verticalLabelPosition=bottom;labelBackgroundColor=#ffffff;verticalAlign=top;shadow=0;dashed=0;strokeWidth=2;shape=mxgraph.ios7.misc.up;strokeColor=light-dark(#000000,#FF8000);rotation=-90;fillColor=light-dark(#000000,#FF8000);" vertex="1" parent="1">
          <mxGeometry x="878" y="427" width="12" height="6" as="geometry" />
        </mxCell>
        <mxCell id="5goqEzdLOGWbC_1ylqqu-60" value="" style="html=1;verticalLabelPosition=bottom;labelBackgroundColor=#ffffff;verticalAlign=top;shadow=0;dashed=0;strokeWidth=2;shape=mxgraph.ios7.misc.up;strokeColor=light-dark(#000000,#FF8000);fillColor=light-dark(#000000,#FF8000);" vertex="1" parent="1">
          <mxGeometry x="914" y="460" width="12" height="6" as="geometry" />
        </mxCell>
        <mxCell id="5goqEzdLOGWbC_1ylqqu-61" value="&lt;font style=&quot;font-size: 16px;&quot;&gt;Reverse current &lt;span style=&quot;color: light-dark(rgb(0, 0, 0), rgb(255, 128, 0));&quot;&gt;cannot flow.&lt;/span&gt;&lt;/font&gt;" style="text;html=1;align=center;verticalAlign=middle;whiteSpace=wrap;rounded=0;" vertex="1" parent="1">
          <mxGeometry x="895.5" y="340" width="89" height="30" as="geometry" />
        </mxCell>
        <mxCell id="5goqEzdLOGWbC_1ylqqu-65" value="" style="endArrow=none;html=1;rounded=0;entryX=0.536;entryY=0.492;entryDx=0;entryDy=0;entryPerimeter=0;strokeColor=light-dark(#000000,#FF0000);" edge="1" parent="1" target="5goqEzdLOGWbC_1ylqqu-67">
          <mxGeometry width="50" height="50" relative="1" as="geometry">
            <mxPoint x="979" y="396" as="sourcePoint" />
            <mxPoint x="1015" y="396" as="targetPoint" />
          </mxGeometry>
        </mxCell>
        <mxCell id="5goqEzdLOGWbC_1ylqqu-66" value="" style="endArrow=none;html=1;rounded=0;strokeColor=light-dark(#2D7600,#FF0000);" edge="1" parent="1" source="5goqEzdLOGWbC_1ylqqu-67">
          <mxGeometry width="50" height="50" relative="1" as="geometry">
            <mxPoint x="945" y="396" as="sourcePoint" />
            <mxPoint x="1015" y="396" as="targetPoint" />
          </mxGeometry>
        </mxCell>
        <mxCell id="5goqEzdLOGWbC_1ylqqu-67" value="" style="shape=mxgraph.sysml.x;direction=west;rotation=-180;strokeColor=light-dark(#000000,#FF8000);container=0;" vertex="1" parent="1">
          <mxGeometry x="1039" y="391" width="10" height="10" as="geometry" />
        </mxCell>
        <mxCell id="5goqEzdLOGWbC_1ylqqu-68" value="" style="endArrow=none;html=1;rounded=0;entryX=0.496;entryY=0.486;entryDx=0;entryDy=0;entryPerimeter=0;strokeColor=light-dark(#000000,#FF0000);" edge="1" parent="1" source="5goqEzdLOGWbC_1ylqqu-74" target="5goqEzdLOGWbC_1ylqqu-69">
          <mxGeometry width="50" height="50" relative="1" as="geometry">
            <mxPoint x="860" y="396" as="sourcePoint" />
            <mxPoint x="1010" y="396" as="targetPoint" />
          </mxGeometry>
        </mxCell>
        <mxCell id="5goqEzdLOGWbC_1ylqqu-69" value="" style="html=1;verticalLabelPosition=bottom;labelBackgroundColor=#ffffff;verticalAlign=top;shadow=0;dashed=0;strokeWidth=2;shape=mxgraph.ios7.misc.up;strokeColor=light-dark(#000000,#FF8000);rotation=-90;fillColor=light-dark(#000000,#FF8000);container=0;flipH=0;flipV=1;" vertex="1" parent="1">
          <mxGeometry x="990" y="393" width="12" height="6" as="geometry" />
        </mxCell>
        <mxCell id="5goqEzdLOGWbC_1ylqqu-75" value="" style="endArrow=none;html=1;rounded=0;entryX=0.5;entryY=0;entryDx=0;entryDy=0;entryPerimeter=0;strokeColor=light-dark(#000000,#FF0000);" edge="1" parent="1" target="5goqEzdLOGWbC_1ylqqu-74">
          <mxGeometry width="50" height="50" relative="1" as="geometry">
            <mxPoint x="860" y="396" as="sourcePoint" />
            <mxPoint x="983" y="396" as="targetPoint" />
          </mxGeometry>
        </mxCell>
        <mxCell id="5goqEzdLOGWbC_1ylqqu-74" value="" style="html=1;verticalLabelPosition=bottom;labelBackgroundColor=#ffffff;verticalAlign=top;shadow=0;dashed=0;strokeWidth=2;shape=mxgraph.ios7.misc.up;strokeColor=light-dark(#000000,#FF8000);rotation=-90;fillColor=light-dark(#000000,#FF8000);container=0;flipH=0;flipV=1;" vertex="1" parent="1">
          <mxGeometry x="934" y="393" width="12" height="6" as="geometry" />
        </mxCell>
        <mxCell id="5goqEzdLOGWbC_1ylqqu-76" value="" style="html=1;verticalLabelPosition=bottom;labelBackgroundColor=#ffffff;verticalAlign=top;shadow=0;dashed=0;strokeWidth=2;shape=mxgraph.ios7.misc.up;strokeColor=light-dark(#000000,#FF8000);rotation=-90;fillColor=light-dark(#000000,#FF8000);container=0;flipH=0;flipV=1;" vertex="1" parent="1">
          <mxGeometry x="878" y="393" width="12" height="6" as="geometry" />
        </mxCell>
        <mxCell id="5goqEzdLOGWbC_1ylqqu-81" value="e.g. A USB Connection" style="text;html=1;align=center;verticalAlign=middle;whiteSpace=wrap;rounded=0;" vertex="1" parent="1">
          <mxGeometry x="1425" y="440" width="60" height="30" as="geometry" />
        </mxCell>
      </root>
    </mxGraphModel>
  </diagram>
</mxfile>
